<?xml version="1.0" encoding="UTF-8" standalone="no"?><svg xmlns="http://www.w3.org/2000/svg" xmlns:xlink="http://www.w3.org/1999/xlink" contentScriptType="application/ecmascript" contentStyleType="text/css" height="294.5833px" preserveAspectRatio="none" style="width:345px;height:294px;" version="1.1" viewBox="0 0 345 294" width="345.625px" zoomAndPan="magnify"><defs><filter height="300%" id="fj5a29g3n2j54" width="300%" x="-1" y="-1"><feGaussianBlur result="blurOut" stdDeviation="1.4583333333333333"/><feColorMatrix in="blurOut" result="blurOut2" type="matrix" values="0 0 0 0 0 0 0 0 0 0 0 0 0 0 0 0 0 0 .4 0"/><feOffset dx="2.9166666666666665" dy="2.9166666666666665" in="blurOut2" result="blurOut3"/><feBlend in="SourceGraphic" in2="blurOut3" mode="normal"/></filter></defs><g><ellipse cx="119.5833" cy="13.125" fill="#000000" filter="url(#fj5a29g3n2j54)" rx="7.2917" ry="7.2917" style="stroke: none; stroke-width: 0.7291666666666666;"/><rect fill="#FEFECE" filter="url(#fj5a29g3n2j54)" height="36.4583" rx="9.1146" ry="9.1146" style="stroke: #A80036; stroke-width: 1.09375;" width="58.3333" x="90.4167" y="64.8958"/><line style="stroke: #A80036; stroke-width: 1.09375;" x1="90.4167" x2="148.75" y1="84.0706" y2="84.0706"/><text fill="#000000" font-family="sans-serif" font-size="10.2083" lengthAdjust="spacingAndGlyphs" textLength="43.75" x="97.7083" y="78.0173">LineStart</text><ellipse cx="11.6667" cy="222.0313" fill="none" filter="url(#fj5a29g3n2j54)" rx="7.2917" ry="7.2917" style="stroke: #000000; stroke-width: 0.7291666666666666;"/><ellipse cx="12.0313" cy="222.3958" fill="#000000" rx="4.375" ry="4.375" style="stroke: none; stroke-width: 0.7291666666666666;"/><rect fill="#FEFECE" filter="url(#fj5a29g3n2j54)" height="36.4583" rx="9.1146" ry="9.1146" style="stroke: #A80036; stroke-width: 1.09375;" width="61.9792" x="44.8438" y="203.8021"/><line style="stroke: #A80036; stroke-width: 1.09375;" x1="44.8438" x2="106.8229" y1="222.9769" y2="222.9769"/><text fill="#000000" font-family="sans-serif" font-size="10.2083" lengthAdjust="spacingAndGlyphs" textLength="47.3958" x="52.1354" y="216.9235">CodeLine</text><rect fill="#FEFECE" filter="url(#fj5a29g3n2j54)" height="129.279" rx="9.1146" ry="9.1146" style="stroke: #A80036; stroke-width: 1.09375;" width="204.1667" x="132.7083" y="157.5"/><rect fill="#FFFFFF" height="105.7292" rx="9.1146" ry="9.1146" style="stroke: #FFFFFF; stroke-width: 0.7291666666666666;" width="199.7917" x="134.8958" y="178.8623"/><line style="stroke: #A80036; stroke-width: 1.09375;" x1="132.7083" x2="336.875" y1="176.6748" y2="176.6748"/><text fill="#000000" font-family="sans-serif" font-size="10.2083" lengthAdjust="spacingAndGlyphs" textLength="70" x="199.7917" y="170.6214">CommentLine</text><ellipse cx="148.0208" cy="204.3831" fill="#000000" filter="url(#fj5a29g3n2j54)" rx="7.2917" ry="7.2917" style="stroke: none; stroke-width: 0.7291666666666666;"/><rect fill="#FEFECE" filter="url(#fj5a29g3n2j54)" height="36.4583" rx="9.1146" ry="9.1146" style="stroke: #A80036; stroke-width: 1.09375;" width="43.75" x="168.4375" y="186.154"/><line style="stroke: #A80036; stroke-width: 1.09375;" x1="168.4375" x2="212.1875" y1="205.3288" y2="205.3288"/><text fill="#000000" font-family="sans-serif" font-size="10.2083" lengthAdjust="spacingAndGlyphs" textLength="29.1667" x="175.7292" y="199.2754">Begin</text><rect fill="#FEFECE" filter="url(#fj5a29g3n2j54)" height="36.4583" rx="9.1146" ry="9.1146" style="stroke: #A80036; stroke-width: 1.09375;" width="37.9167" x="239.8958" y="186.154"/><line style="stroke: #A80036; stroke-width: 1.09375;" x1="239.8958" x2="277.8125" y1="205.3288" y2="205.3288"/><text fill="#000000" font-family="sans-serif" font-size="10.2083" lengthAdjust="spacingAndGlyphs" textLength="23.3333" x="247.1875" y="199.2754">Rest</text><ellipse cx="224.5833" cy="268.5498" fill="none" filter="url(#fj5a29g3n2j54)" rx="7.2917" ry="7.2917" style="stroke: #000000; stroke-width: 0.7291666666666666;"/><ellipse cx="224.9479" cy="268.9144" fill="#000000" rx="4.375" ry="4.375" style="stroke: none; stroke-width: 0.7291666666666666;"/><!--link *start*CommentLine to Begin--><path d="M155.6201,204.3831 C158.6057,204.3831 161.5914,204.3831 164.5769,204.3831 " fill="none" id="*start*CommentLine-Begin" style="stroke: #A80036; stroke-width: 0.7291666666666666;"/><polygon fill="#A80036" points="168.3588,204.3831,161.7963,201.4665,164.7129,204.3831,161.7963,207.2998,168.3588,204.3831" style="stroke: #A80036; stroke-width: 0.7291666666666666;"/><!--link Begin to Rest--><path d="M212.1879,204.3831 C219.7971,204.3831 228.3487,204.3831 236.032,204.3831 " fill="none" id="Begin-Rest" style="stroke: #A80036; stroke-width: 0.7291666666666666;"/><polygon fill="#A80036" points="239.7267,204.3831,233.1642,201.4665,236.0808,204.3831,233.1642,207.2998,239.7267,204.3831" style="stroke: #A80036; stroke-width: 0.7291666666666666;"/><text fill="#000000" font-family="sans-serif" font-size="9.4792" lengthAdjust="spacingAndGlyphs" textLength="13.125" x="219.4792" y="199.3277">(6)</text><!--link Begin to *end*CommentLine--><path d="M200.0415,222.9143 C206.3307,234.4221 214.2678,248.946 219.3844,258.3077 " fill="none" id="Begin-*end*CommentLine" style="stroke: #A80036; stroke-width: 0.7291666666666666;"/><polygon fill="#A80036" points="221.262,261.7438,220.6739,254.5864,219.5134,258.5446,215.5553,257.3841,221.262,261.7438" style="stroke: #A80036; stroke-width: 0.7291666666666666;"/><text fill="#000000" font-family="sans-serif" font-size="9.4792" lengthAdjust="spacingAndGlyphs" textLength="13.125" x="213.6458" y="245.2652">(7)</text><!--link Rest to Rest--><path d="M277.9576,197.5625 C285.0772,197.3387 290.9375,199.6122 290.9375,204.3831 C290.9375,208.2595 287.0685,210.4873 281.7996,211.0665 " fill="none" id="Rest-Rest" style="stroke: #A80036; stroke-width: 0.7291666666666666;"/><polygon fill="#A80036" points="277.9576,211.2041,284.6201,213.8845,281.6011,211.0738,284.4117,208.0549,277.9576,211.2041" style="stroke: #A80036; stroke-width: 0.7291666666666666;"/><text fill="#000000" font-family="sans-serif" font-size="9.4792" lengthAdjust="spacingAndGlyphs" textLength="13.125" x="295.3125" y="207.7132">(8)</text><!--link Rest to *end*CommentLine--><path d="M249.1249,222.9143 C242.8358,234.4221 234.8989,248.946 229.7823,258.3077 " fill="none" id="Rest-*end*CommentLine" style="stroke: #A80036; stroke-width: 0.7291666666666666;"/><polygon fill="#A80036" points="227.9047,261.7438,233.6114,257.3841,229.6532,258.5446,228.4927,254.5864,227.9047,261.7438" style="stroke: #A80036; stroke-width: 0.7291666666666666;"/><text fill="#000000" font-family="sans-serif" font-size="9.4792" lengthAdjust="spacingAndGlyphs" textLength="13.125" x="242.0833" y="245.2652">(9)</text><!--link *start to LineStart--><path d="M119.5833,20.4261 C119.5833,29.6756 119.5833,46.9649 119.5833,60.9365 " fill="none" id="*start-LineStart" style="stroke: #A80036; stroke-width: 0.7291666666666666;"/><polygon fill="#A80036" points="119.5833,64.7792,122.5,58.2167,119.5833,61.1333,116.6667,58.2167,119.5833,64.7792" style="stroke: #A80036; stroke-width: 0.7291666666666666;"/><!--link LineStart to *end--><path d="M90.0776,95.6674 C76.477,102.2277 60.8844,111.4633 49.5833,123.2292 C25.2633,148.5487 16.0848,191.1758 13.0234,210.8159 " fill="none" id="LineStart-*end" style="stroke: #A80036; stroke-width: 0.7291666666666666;"/><polygon fill="#A80036" points="12.4597,214.6436,16.3015,208.5762,12.9909,211.0367,10.5304,207.7262,12.4597,214.6436" style="stroke: #A80036; stroke-width: 0.7291666666666666;"/><text fill="#000000" font-family="sans-serif" font-size="9.4792" lengthAdjust="spacingAndGlyphs" textLength="13.125" x="50.3125" y="132.7571">(1)</text><!--link LineStart to CodeLine--><path d="M91.4288,101.4183 C84.2946,107.3888 77.552,114.7358 73.6458,123.2292 C62.3908,147.7 65.8773,179.367 70.1866,199.998 " fill="none" id="LineStart-CodeLine" style="stroke: #A80036; stroke-width: 0.7291666666666666;"/><polygon fill="#A80036" points="70.9974,203.7182,72.4503,196.6853,70.2213,200.156,66.7507,197.927,70.9974,203.7182" style="stroke: #A80036; stroke-width: 0.7291666666666666;"/><text fill="#000000" font-family="sans-serif" font-size="9.4792" lengthAdjust="spacingAndGlyphs" textLength="13.125" x="74.375" y="132.7571">(2)</text><!--link LineStart to CodeLine--><path d="M112.8313,105.0678 C104.2154,132.1359 89.4695,178.4628 81.4414,203.6825 " fill="none" id="LineStart-CodeLine" style="stroke: #A80036; stroke-width: 0.7291666666666666;"/><polygon fill="#A80036" points="113.9534,101.5416,109.1845,106.911,112.8481,105.0158,114.7433,108.6795,113.9534,101.5416" style="stroke: #A80036; stroke-width: 0.7291666666666666;"/><text fill="#000000" font-family="sans-serif" font-size="9.4792" lengthAdjust="spacingAndGlyphs" textLength="13.125" x="107.9167" y="132.7571">(3)</text><!--link LineStart to CommentLine--><path d="M134.4088,101.5416 C145.8202,115.1558 162.3621,134.8907 178.737,154.4266 " fill="none" id="LineStart-CommentLine" style="stroke: #A80036; stroke-width: 0.7291666666666666;"/><polygon fill="#A80036" points="181.1513,157.3068,179.1695,150.4042,178.8086,154.5131,174.6997,154.1523,181.1513,157.3068" style="stroke: #A80036; stroke-width: 0.7291666666666666;"/><text fill="#000000" font-family="sans-serif" font-size="9.4792" lengthAdjust="spacingAndGlyphs" textLength="13.125" x="161.1458" y="132.7571">(4)</text><!--link LineStart to CommentLine--><path d="M152.2733,100.7023 C162.2359,106.8747 172.6936,114.5134 180.8333,123.2292 C190.2505,133.3135 198.5951,145.3477 205.7366,157.4745 " fill="none" id="LineStart-CommentLine" style="stroke: #A80036; stroke-width: 0.7291666666666666;"/><polygon fill="#A80036" points="148.9177,98.6657,153.0144,104.5641,152.0344,100.5574,156.0411,99.5774,148.9177,98.6657" style="stroke: #A80036; stroke-width: 0.7291666666666666;"/><text fill="#000000" font-family="sans-serif" font-size="9.4792" lengthAdjust="spacingAndGlyphs" textLength="13.125" x="191.7708" y="132.7571">(5)</text><!--
@startuml
scale 350 width

[*] - -> LineStart

LineStart - -> [*] : (1)

LineStart - -> CodeLine : (2)
CodeLine -up-> LineStart : (3)

LineStart - -> CommentLine : (4)
CommentLine -up-> LineStart : (5)


state CommentLine {

  [*] -right-> Begin

  Begin -> Rest : (6)
  Begin - -> [*] : (7)

  Rest - -> Rest : (8)
  Rest - -> [*] : (9)

}
@enduml

PlantUML version 1.2017.16(Sun Sep 03 10:53:37 UTC 2017)
(GPL source distribution)
Java Runtime: Java(TM) SE Runtime Environment
JVM: Java HotSpot(TM) 64-Bit Server VM
Java Version: 1.7.0_25-b15
Operating System: Linux
Default Encoding: UTF-8
Language: en
Country: US
--></g></svg>